<?xml version="1.0" encoding="iso-8859-1"?>
<!-- Uploaded to: SVG Repo, www.svgrepo.com, Generator: SVG Repo Mixer Tools -->
<svg fill="#000000" height="800px" width="800px" version="1.1" id="Layer_1" xmlns="http://www.w3.org/2000/svg" xmlns:xlink="http://www.w3.org/1999/xlink" 
	 viewBox="0 0 512 512" xml:space="preserve">
<g>
	<g>
		<polygon points="66.12,109.77 58.431,117.459 50.661,109.691 39.709,120.643 58.431,139.364 77.072,120.723 		"/>
	</g>
</g>
<g>
	<g>
		<polygon points="159.32,403.009 151.63,410.698 143.86,402.93 132.909,413.882 151.63,432.603 170.272,413.961 		"/>
	</g>
</g>
<g>
	<g>
		<polygon points="341.584,469.787 333.894,477.476 326.126,469.706 315.173,480.659 333.894,499.38 352.535,480.739 		"/>
	</g>
</g>
<g>
	<g>
		<polygon points="416.515,12.7 408.827,20.389 401.058,12.62 390.106,23.573 408.827,42.294 427.469,23.652 		"/>
	</g>
</g>
<g>
	<g>
		<path d="M486.316,349.017v-0.002c-1.874-56.67-24.268-110.15-63.563-151.33c-36.968-38.74-85.468-63.077-138.03-69.604
			c4.487-4.891,6.171-7.686,7.048-9.536l0.113-0.237c0.928-1.955,2.333-4.908,2.792-9.107c0.763-6.951-1.438-13.911-6.042-19.099
			c-4.493-5.062-10.942-8.003-17.695-8.068c-5.787-0.071-10.573,1.293-15.015,4.376c-4.054-2.809-8.67-4.474-14.992-4.374
			c-6.752,0.099-12.963,2.956-17.49,8.047c-4.616,5.191-6.852,12.152-6.138,19.1c0.452,4.387,1.905,7.32,2.867,9.262l0.107,0.216
			c0.904,1.831,2.609,4.594,7.042,9.416c-52.573,6.517-101.085,30.854-138.061,69.596c-39.304,41.182-61.701,94.667-63.576,151.343
			H0v46.032h512v-46.032H486.316z M235.018,100.374c1.606-1.805,3.787-2.818,6.141-2.853c3.7-0.038,5.661,0.89,9.361,4.591
			l5.685,5.685l5.469-5.892c3.23-3.479,5.206-4.413,9.116-4.383c2.42,0.024,4.643,1.04,6.26,2.861
			c1.704,1.921,2.518,4.518,2.23,7.129c-0.176,1.602-0.71,2.726-1.386,4.149l-0.121,0.254c-0.315,0.664-2.385,4.333-13.389,14.539
			c-0.578-0.021-1.156-0.03-1.734-0.046c-0.466-0.013-0.932-0.027-1.398-0.038c-1.76-0.04-3.514-0.067-5.252-0.067
			c-1.713,0-3.448,0.027-5.187,0.066c-0.473,0.01-0.946,0.025-1.419,0.038c-0.578,0.016-1.153,0.026-1.733,0.046
			c-10.989-10.22-13.159-13.969-13.494-14.65l-0.114-0.232c-0.682-1.376-1.174-2.37-1.339-3.976
			C232.443,104.958,233.282,102.326,235.018,100.374z M245.166,142.06c7.284-0.36,14.468-0.358,21.705,0.001
			c111.864,5.568,200.037,95.782,203.963,206.953H41.166C45.093,237.827,133.283,147.61,245.166,142.06z M15.489,379.558v-15.053
			h10.051h460.918h10.052v15.053H15.489z"/>
	</g>
</g>
<g>
	<g>
		<path d="M336.941,170.229l-6.172,14.207c6.458,2.806,12.831,6.016,18.943,9.542l7.741-13.416
			C350.836,176.744,343.933,173.268,336.941,170.229z"/>
	</g>
</g>
<g>
	<g>
		<path d="M366.105,185.845l-8.4,13.014c19.22,12.407,35.862,28.035,49.462,46.451l12.46-9.202
			C404.91,216.181,386.903,199.27,366.105,185.845z"/>
	</g>
</g>
</svg>